<?xml version="1.0" encoding="UTF-8"?>
<svg xmlns="http://www.w3.org/2000/svg" viewBox="0 0 24 24" width="24" height="24">
  <path d="M12,2 C6.48,2 2,6.48 2,12 C2,17.52 6.48,22 12,22 C17.52,22 22,17.52 22,12 C22,6.48 17.52,2 12,2 Z" fill="#4285F4"/>
  <path d="M19,12.8 L12.8,12.8 L12.8,14.4 L16.4,14.4 C16.1,15.7 15,16.7 12.8,16.7 C10.2,16.7 8.2,14.7 8.2,12 C8.2,9.3 10.2,7.3 12.8,7.3 C14.1,7.3 15.1,7.8 15.8,8.4 L17,7.2 C15.9,6.2 14.5,5.5 12.8,5.5 C9.1,5.5 6.2,8.6 6.2,12 C6.2,15.4 9.1,18.5 12.8,18.5 C16.3,18.5 19,16.1 19,12.2 C19,11.7 19,12.3 19,12.8 Z" fill="#fff"/>
</svg>
