<?xml version="1.0" encoding="UTF-8"?>
<svg xmlns="http://www.w3.org/2000/svg" viewBox="0 0 24 24" width="24" height="24">
  <circle cx="12" cy="12" r="10" fill="#FF5722"/>
  <path d="M12,6 C10.9,6 10,6.9 10,8 L10,12 C10,13.1 10.9,14 12,14 C13.1,14 14,13.1 14,12 L14,8 C14,6.9 13.1,6 12,6 Z" fill="#fff"/>
  <path d="M16,11 L16,12 C16,14.2 14.2,16 12,16 C9.8,16 8,14.2 8,12 L8,11 L7,11 L7,12 C7,14.8 9.1,17 12,17 L12,19 L15,19 L15,17 C17.9,17 20,14.8 20,12 L20,11 L16,11 L16,11 Z" fill="#fff"/>
</svg>
